<?xml version="1.0" standalone="no"?>
<!DOCTYPE svg PUBLIC "-//W3C//DTD SVG 20010904//EN"
 "http://www.w3.org/TR/2001/REC-SVG-20010904/DTD/svg10.dtd">
<svg version="1.0" xmlns="http://www.w3.org/2000/svg"
 width="512.000000pt" height="512.000000pt" viewBox="0 0 512.000000 512.000000"
 preserveAspectRatio="xMidYMid meet">
<metadata>
Created by potrace 1.14, written by Peter Selinger 2001-2017
</metadata>
<g transform="translate(0.000000,512.000000) scale(0.100000,-0.100000)"
fill="#000000" stroke="none">
<path d="M540 4783 c-84 -30 -151 -89 -191 -171 l-24 -47 0 -805 0 -805 24
-48 c32 -62 96 -126 157 -157 l49 -25 805 0 805 0 47 23 c62 31 129 97 159
158 l24 49 0 805 0 805 -27 52 c-35 65 -90 121 -154 153 l-49 25 -790 2 c-698
2 -795 0 -835 -14z m1540 -1023 l0 -720 -720 0 -720 0 0 720 0 720 720 0 720
0 0 -720z"/>
<path d="M990 4141 l-25 -20 -3 -342 c-3 -367 0 -393 45 -410 13 -5 173 -9
354 -9 356 0 382 4 394 53 3 12 5 176 3 364 -3 313 -5 344 -21 360 -16 17 -47
18 -370 20 -335 3 -353 2 -377 -16z"/>
<path d="M2940 4783 c-97 -34 -169 -106 -203 -203 -14 -40 -16 -138 -14 -835
l2 -790 24 -48 c29 -59 96 -126 158 -158 l48 -24 787 -3 c704 -2 792 0 835 14
61 21 115 60 157 115 68 90 66 59 66 909 0 557 -4 776 -12 805 -26 88 -95 169
-178 208 -45 22 -48 22 -835 24 -697 2 -795 0 -835 -14z m1540 -1023 l0 -720
-720 0 -720 0 0 720 0 720 720 0 720 0 0 -720z"/>
<path d="M3402 4153 c-7 -2 -19 -18 -27 -33 -12 -24 -15 -87 -15 -359 0 -181
4 -341 9 -354 17 -45 43 -48 410 -45 l342 3 20 25 c18 24 19 42 16 377 -2 323
-3 354 -20 370 -16 17 -47 18 -370 20 -194 1 -358 -1 -365 -4z"/>
<path d="M540 2383 c-84 -30 -151 -89 -191 -171 l-24 -47 0 -805 0 -805 24
-48 c32 -62 96 -126 157 -157 l49 -25 805 0 805 0 48 25 c64 32 128 95 158
156 l24 49 2 785 c2 586 0 795 -9 825 -26 87 -90 162 -174 205 l-49 25 -790 2
c-698 2 -795 0 -835 -14z m1540 -1023 l0 -720 -720 0 -720 0 0 720 0 720 720
0 720 0 0 -720z"/>
<path d="M990 1741 l-25 -20 -3 -342 c-3 -367 0 -393 45 -410 13 -5 173 -9
354 -9 356 0 382 4 394 53 3 12 5 176 3 364 -3 313 -5 344 -21 360 -16 17 -47
18 -370 20 -335 3 -353 2 -377 -16z"/>
<path d="M2750 2380 l-25 -19 -3 -253 c-2 -139 0 -268 3 -285 11 -59 32 -63
315 -63 262 0 298 5 314 45 8 21 8 513 0 543 -13 47 -43 52 -321 52 -239 0
-260 -2 -283 -20z"/>
<path d="M4358 2384 c-15 -8 -30 -25 -34 -38 -3 -12 -4 -104 -2 -204 3 -158 5
-184 21 -199 16 -16 39 -18 218 -18 l200 0 19 25 c18 22 20 43 20 203 0 193
-8 229 -52 241 -13 3 -99 6 -193 5 -131 0 -176 -3 -197 -15z"/>
<path d="M3405 1751 c-44 -18 -46 -37 -43 -403 3 -318 5 -349 21 -365 16 -16
47 -18 360 -21 188 -2 352 0 364 3 49 12 53 38 53 392 0 180 -3 338 -6 351
-14 49 -37 52 -396 51 -183 0 -342 -4 -353 -8z"/>
<path d="M4210 953 c-8 -3 -23 -15 -32 -27 -16 -19 -18 -49 -18 -276 0 -140 3
-265 6 -278 13 -47 43 -52 314 -52 271 0 303 5 315 53 3 12 5 140 3 284 -3
236 -5 264 -21 280 -16 16 -43 18 -285 20 -147 1 -274 -1 -282 -4z"/>
<path d="M2765 791 c-41 -17 -46 -46 -43 -244 3 -163 5 -189 21 -204 15 -16
41 -18 199 -21 100 -2 192 -1 205 2 47 12 55 51 51 251 -3 161 -5 187 -21 202
-16 16 -40 18 -205 20 -103 1 -196 -1 -207 -6z"/>
</g>
</svg>
